<svg xmlns="http://www.w3.org/2000/svg" viewBox="0 0 572 205.06"><defs><style>.cls-1{fill:#231f20;}.cls-2{fill:#e35205;}</style></defs><title>victor-logo</title><g id="Layer_2" data-name="Layer 2"><g id="Layer_1-2" data-name="Layer 1"><path class="cls-1" d="M117.31,107.28,56.76,3a6.1,6.1,0,0,0-5.27-3H6.09A6,6,0,0,0,.86,9.08l115.91,193a6.11,6.11,0,0,0,10.54-.14L202.65,68.47a2,2,0,0,0-1.78-3H170.46a33.15,33.15,0,0,0-29.11,17.15l-13.42,24.52a6.12,6.12,0,0,1-10.62.14"/><path class="cls-2" d="M205.89,0A31.43,31.43,0,0,0,178.2,16.42L166.5,35.81,163,42.2a30.68,30.68,0,0,1,18.91-6.39l39.62-.17L239.78,3.69A2.46,2.46,0,0,0,237.61,0Z"/><path class="cls-1" d="M310,102.13V141.8c0,1.7,1.8,2.55,3.61,2.55s3.61-.85,3.61-2.55V84.65c0-1.7-1.81-2.46-3.61-2.46S310,83,310,84.65v17.48Z"/><path class="cls-1" d="M364.86,88.65c-7.39,0-11.43,3.83-11.43,12.08v25.59c0,8.25,4,12.08,11.68,12.08,9.55,0,10.41-6.12,10.93-10.12.17-1.7,1.46-2.46,3.61-2.46,2.4,0,3.61.76,3.61,4,0,8.42-7.14,15.05-18.66,15.05-10.06,0-18.4-5-18.4-18.54V100.73c0-13.52,8.42-18.54,18.49-18.54,11.52,0,18.57,6.46,18.57,14.79,0,3.24-1.21,3.92-3.61,3.92s-3.53-.94-3.61-2.47c-.18-3.4-1.56-9.78-11.18-9.78"/><path class="cls-1" d="M442.79,82.19c1.72,0,2.58,1.62,2.58,3.23s-.86,3.4-2.58,3.4H429v53c0,1.7-1.8,2.55-3.61,2.55s-3.61-.85-3.61-2.55v-53H407.8c-1.64,0-2.58-1.62-2.58-3.4,0-1.53.85-3.23,2.58-3.23Z"/><path class="cls-1" d="M497.84,100.72c0-8.24-4.3-12.07-11.35-12.07s-11.27,3.83-11.27,12.07v25.6c0,8.25,4.22,12.08,11.27,12.08s11.35-3.83,11.35-12.08ZM468,126.32v-25.6c0-13.51,8.08-18.53,18.49-18.53s18.57,5,18.57,18.53v25.6c0,13.53-8.17,18.54-18.57,18.54s-18.49-5-18.49-18.54"/><path class="cls-1" d="M541.56,88.65v22.2h11.09c7.14,0,11.87-3.06,11.87-11.14s-4.73-11.06-11.87-11.06Zm-7.22-4a2.55,2.55,0,0,1,2.58-2.46h15.73c10.41,0,19.09,4.08,19.09,17,0,10.37-5.59,15.13-12.81,16.58l12.73,23.89a2.41,2.41,0,0,1,.34,1.19c0,1.88-2.24,3.66-4.3,3.66-1.46,0-2.49-1.36-3.26-2.81l-13-24.91h-9.89v25c0,1.7-1.8,2.55-3.61,2.55s-3.61-.85-3.61-2.55Z"/><path class="cls-1" d="M271.55,102.13,262,134.32,246.83,83.8a2.52,2.52,0,0,0-2.67-1.61c-1.89,0-4.38,1.19-4.38,3a2.06,2.06,0,0,0,.17.68l17.63,56.56c.52,1.7,2.4,2.47,4.38,2.47s4-.86,4.56-2.47L279,102.13l1.71-5.52L284,85.84c0-.25.08-.42.08-.59,0-1.7-2.41-3.06-4.47-3.06A2.54,2.54,0,0,0,277,83.8L273.2,96.61Z"/></g></g></svg>