<svg xmlns="http://www.w3.org/2000/svg" xmlns:xlink="http://www.w3.org/1999/xlink" xml:space="preserve" version="1.1" style="shape-rendering:geometricPrecision;text-rendering:geometricPrecision;image-rendering:optimizeQuality;" viewBox="0 0 847 1058.75" x="0px" y="0px" fill-rule="evenodd" clip-rule="evenodd"><defs><style type="text/css">
   
    .fil0 {fill:black}
   
  </style></defs><g><path class="fil0" d="M358 20l131 0c10,0 18,8 18,19l0 60 -167 0 0 -60c0,-11 8,-19 18,-19zm-338 469l0 -131c0,-10 8,-18 19,-18l60 0 0 167 -60 0c-11,0 -19,-8 -19,-18zm97 -149l74 0 0 167 -74 0 0 -167zm91 0l74 0 0 167 -74 0 0 -167zm92 0l40 0 0 -40 167 0 0 40 40 0 0 167 -40 0 0 40 -167 0 0 -40 -40 0 0 -167zm264 0l74 0 0 167 -74 0 0 -167zm92 0l74 0 0 167 -74 0 0 -167zm91 0l60 0c11,0 20,8 20,18l0 131c0,10 -9,18 -20,18l-60 0 0 -167zm-240 -223l0 74 -167 0 0 -74 167 0zm0 91l0 74 -167 0 0 -74 167 0zm0 356l0 74 -167 0 0 -74 167 0zm0 92l0 74 -167 0 0 -74 167 0zm0 91l0 60c0,11 -8,20 -18,20l-131 0c-10,0 -18,-9 -18,-20l0 -60 167 0z"/></g><text x="0" y="862" fill="#000000" font-size="5px" font-weight="bold" font-family="'Helvetica Neue', Helvetica, Arial-Unicode, Arial, Sans-serif">Created by Hasan</text><text x="0" y="867" fill="#000000" font-size="5px" font-weight="bold" font-family="'Helvetica Neue', Helvetica, Arial-Unicode, Arial, Sans-serif">from the Noun Project</text></svg>